<?xml version="1.0" standalone="no"?><!DOCTYPE svg PUBLIC "-//W3C//DTD SVG 1.1//EN" "http://www.w3.org/Graphics/SVG/1.1/DTD/svg11.dtd"><svg t="1773391035203" class="icon" viewBox="0 0 1024 1024" version="1.1" xmlns="http://www.w3.org/2000/svg" p-id="14696" xmlns:xlink="http://www.w3.org/1999/xlink" width="200" height="200"><path d="M943.104 753.152L826.368 182.272c-1.024-9.728-10.752-60.928-68.096-82.432-60.928-22.528-110.08-37.888-134.144-45.056-9.728-2.56-27.136-8.192-44.032 1.536-17.92 10.24-29.696 32.768-41.472 80.384-5.12 20.48-16.384 60.928-26.624 96.256l-0.512 1.024-40.96-145.92c-1.536-9.216-7.168-21.504-19.456-29.184-17.92-11.264-43.008-9.728-76.8 4.096l-94.72 31.232c-13.312 3.072-68.096 17.408-83.456 92.672C182.272 254.464 84.992 728.576 78.848 757.76c-3.072 8.192-12.8 41.984 0.512 70.656 7.168 15.872 20.48 27.136 37.888 33.28 33.792 11.776 69.632 23.04 89.088 29.184v81.92h610.816v-81.408l91.648-32.768c5.12-1.536 23.04-8.192 33.792-28.672 11.264-19.456 11.264-45.568 0.512-76.8z m-412.672-439.296c3.584-12.288 36.864-125.952 47.104-166.4 11.776-46.08 19.968-53.76 22.528-55.296 1.536-0.512 5.632 0 12.8 2.048 16.896 5.12 46.08 13.824 82.944 26.624L465.92 592.384l64.512-278.528z m-143.36-211.456l1.536-0.512c28.672-11.776 38.912-8.192 40.448-7.168 0 0 0.512 0.512 1.024 0.512l60.416 214.016-23.552 100.352-137.216-288.768 57.344-18.432z m-2.048 829.952H247.808v-348.16h-40.448v264.192c-19.968-6.144-48.64-15.36-75.776-25.088-7.168-2.56-12.288-6.656-14.848-12.288-6.656-13.312-1.536-34.304 1.024-40.96l1.024-3.072c1.024-5.12 102.912-502.784 117.248-572.416 11.264-53.76 49.152-59.904 50.176-59.904h2.048l2.56-1.024 161.28 338.944-67.072 287.744v172.032z m522.752-121.344c-3.584 7.168-9.216 9.216-9.728 9.216l-80.384 28.672V584.192h-40.448V931.84h-351.744V767.488l308.224-633.344c3.584 1.024 6.656 2.56 10.24 3.584 37.376 13.824 41.472 48.128 41.984 49.152v1.024l117.76 574.976 0.512 2.56c9.216 25.088 6.656 38.4 3.584 45.568z" fill="#2c2c2c" p-id="14697"></path></svg>