<svg xmlns="http://www.w3.org/2000/svg" viewBox="0 0 1024 1024"><path d="M829.44 419.84l-276.48-160.426667c-23.893333-13.653333-54.613333-13.653333-81.92-3.413333l-283.306667 143.36c-10.24 3.413333-17.066667 13.653333-20.48 20.48-6.826667 13.653333-6.826667 27.306667-3.413333 37.546667 0 10.24 6.826667 20.48 13.653333 27.306666-13.653333 10.24-23.893333 23.893333-23.893333 44.373334v61.44l314.026667 187.733333c13.653333 6.826667 27.306667 13.653333 44.373333 13.653333s30.72-3.413333 44.373333-13.653333l273.066667-170.666667c13.653333-10.24 23.893333-23.893333 23.893333-44.373333v-98.986667c0-20.48-10.24-37.546667-23.893333-44.373333z m-10.24 139.946667c0 6.826667-3.413333 10.24-6.826667 13.653333l-273.066666 170.666667c-17.066667 10.24-37.546667 10.24-54.613334 0l-296.96-177.493334v-44.373333c0-3.413333 6.826667-10.24 17.066667-10.24H225.28l242.346667 133.12c27.306667 13.653333 61.44 13.653333 88.746666-3.413333l170.666667-112.64-20.48-27.306667-170.666667 112.64c-17.066667 10.24-37.546667 10.24-51.2 3.413333l-283.306666-153.6c-3.413333-3.413333-6.826667-6.826667-6.826667-10.24v-13.653333c0-3.413333 3.413333-6.826667 6.826667-6.826667l283.306666-143.36c17.066667-6.826667 34.133333-6.826667 47.786667 0l276.48 160.426667c6.826667 3.413333 6.826667 10.24 6.826667 13.653333v95.573334z" fill="#C9A96E"/></svg>
