<svg xmlns="http://www.w3.org/2000/svg" viewBox="0 0 1024 1024"><path d="M315 628c13.8 0 25 11.2 25 25s-11.2 25-25 25h-73c-14.3 0-25.7-12-25-26.3l19.3-380.9c0.4-7.7 4.3-14.8 10.6-19.2l107.4-75.3 48.4-66.9c8.1-11.2 23.7-13.7 34.9-5.6s13.7 23.7 5.6 34.9L392.4 209c-1.6 2.3-3.6 4.2-5.9 5.8l-100.9 70.7L268.3 628H315zM709 628c-13.8 0-25 11.2-25 25s11.2 25 25 25h73c14.3 0 25.7-12 25-26.3l-19.3-380.9c-0.4-7.7-4.3-14.8-10.6-19.2l-107.4-75.3-48.4-66.9c-8.1-11.2-23.7-13.7-34.9-5.6s-13.7 23.7-5.6 34.9l50.8 70.3c1.6 2.3 3.6 4.2 5.9 5.8l100.9 70.7L755.7 628H709z" fill="#C9A96E"/><path d="M647.5 537.5c-0.5-2.9-0.5-5.9 0-8.9l19.3-108.2c2.4-13.6 15.4-22.6 29-20.2s22.6 15.4 20.2 29L697.5 533l66.7 364.6c2.8 15.4-9 29.5-24.6 29.5H284.4c-15.6 0-27.4-14.1-24.6-29.5L326.5 533 308 429.2c-2.4-13.6 6.6-26.6 20.2-29 13.6-2.4 26.6 6.6 29 20.2l19.3 108.2c0.5 2.9 0.5 5.9 0 8.9L314.4 877h395.2l-62.1-339.5z" fill="#C9A96E"/><path d="M558.6 148h-92.8l46.5 103.5L558.6 148z m-154.3-14.8C396.9 116.7 409 98 427.1 98h170.1c18.1 0 30.2 18.7 22.8 35.2L468 472.4l-1.4 422.7c0 13.8-11.3 25-25.1 24.9s-25-11.3-24.9-25.1l1.4-428c0-3.5 0.8-7 2.2-10.1l64.7-144.2-80.6-179.4z" fill="#C9A96E"/><path d="M492.839256 569.314564a24.1 24.1 0 1 0 44.530994-18.445341 24.1 24.1 0 1 0-44.530994 18.445341Z" fill="#C9A96E"/><path d="M511.1 482.1m-24.1 0a24.1 24.1 0 1 0 48.2 0 24.1 24.1 0 1 0-48.2 0Z" fill="#C9A96E"/></svg>
