<svg xmlns="http://www.w3.org/2000/svg" viewBox="0 0 1024 1024"><path d="M977 736H851.7l-48.9-425.9c-0.3-2.6-0.7-5.1-1.3-7.6-4.2-18.2-15.2-33.7-31-43.7-15.8-9.9-34.6-13.1-52.8-8.9l-142.4 32.6c-40.8 9.3-83.9 9.3-124.7 0l-143.4-32.7c-2.4-0.6-5-1-7.5-1.3-18.6-2.2-36.9 3-51.5 14.6-14.7 11.6-23.9 28.2-26.1 46.8L172.4 736H47c-11 0-20 9-20 20s9 20 20 20h930c11 0 20-9 20-20s-9-20-20-20zM261.8 314.5c1.9-16.4 16.8-28.2 33.3-26.3 1.1 0.1 2.1 0.3 3.2 0.5l143.4 32.7c46.6 10.6 95.9 10.6 142.5-0.1l142.4-32.6c7.8-1.8 15.9-0.4 22.6 3.8s11.5 10.9 13.3 18.7l0.6 3.3 31 269.9H230.3l31.5-269.9z m-36.1 310h573L811.5 736H212.7l13-111.5z" fill="#C9A96E"/></svg>
