<?xml version="1.0" encoding="UTF-8"?>
<svg xmlns="http://www.w3.org/2000/svg" viewBox="0 0 870 560" fill="none" stroke="#C9A96E" stroke-width="2.5" stroke-linecap="round" stroke-linejoin="round">

  <!-- dome lid top -->
  <path d="M38,148 L38,98 C38,28 138,20 435,20 C732,20 832,28 832,98 L832,148 Z"/>

  <!-- body outline L-shape: main body + lower-left equipment bay -->
  <path d="M38,148 L38,465 L200,465 L200,432 L832,432 L832,148"/>

  <!-- left latch: horizontal bar + vertical stem -->
  <line x1="56" y1="140" x2="106" y2="140"/>
  <rect x="69" y="140" width="24" height="46" rx="2"/>

  <!-- right latch: horizontal bar + vertical stem -->
  <line x1="764" y1="140" x2="814" y2="140"/>
  <rect x="777" y="140" width="24" height="46" rx="2"/>

  <!-- control panel window (upper-left of body) -->
  <rect x="50" y="170" width="72" height="50" rx="3"/>

  <!-- ventilation grilles (3 horizontal lines, lower-left) -->
  <line x1="50" y1="320" x2="122" y2="320"/>
  <line x1="50" y1="342" x2="122" y2="342"/>
  <line x1="50" y1="364" x2="122" y2="364"/>

  <!-- left caster wheel -->
  <circle cx="128" cy="490" r="50"/>

  <!-- right caster wheel -->
  <circle cx="742" cy="490" r="50"/>

</svg>
