<svg xmlns="http://www.w3.org/2000/svg" viewBox="0 0 24 24" fill="none" stroke="#C9A96E" stroke-width="1.5" stroke-linecap="round" stroke-linejoin="round">
  <!-- 蜡烛烛身 -->
  <rect x="8" y="10" width="8" height="12" rx="0.5"/>
  <!-- 蜡烛顶部蜡油滴落效果 -->
  <path d="M8 10 C8 9 9 8.5 10 8.5 C10.5 8.5 11 9 11 9 C11 8.5 11.5 8 12 8 C12.5 8 13 8.5 13 9 C13 9 13.5 8.5 14 8.5 C15 8.5 16 9 16 10"/>
  <!-- 烛芯 -->
  <line x1="12" y1="8" x2="12" y2="4"/>
  <!-- 火焰 -->
  <ellipse cx="12" cy="3" rx="2" ry="2.5" fill="#C9A96E" opacity="0.3"/>
  <path d="M12 1.5 C11.2 2 10.8 2.8 11 3.5 C11.2 4.2 12 4.5 12 4.5 C12 4.5 12.8 4.2 13 3.5 C13.2 2.8 12.8 2 12 1.5 Z" fill="#C9A96E"/>
</svg>
