<svg xmlns="http://www.w3.org/2000/svg" viewBox="0 0 24 24" fill="none" stroke="#C9A96E" stroke-width="1.5" stroke-linecap="round" stroke-linejoin="round">
  <!-- 底座台阶 -->
  <rect x="2" y="20.5" width="20" height="2.5" rx="0.5"/>
  <!-- 主体 -->
  <rect x="4.5" y="9.5" width="15" height="11"/>
  <!-- 盖沿（略宽于主体，形成边沿） -->
  <rect x="3.5" y="7.5" width="17" height="2"/>
  <!-- 盖面（内收） -->
  <rect x="5.5" y="5.5" width="13" height="2"/>
  <!-- 盖顶（最窄） -->
  <rect x="8.5" y="4" width="7" height="1.5" rx="0.5"/>
  <!-- 中央莲花装饰：花心 -->
  <circle cx="12" cy="15" r="1.2"/>
  <!-- 上瓣 -->
  <path d="M12 13.8 C11 12 11 11 12 11 C13 11 13 12 12 13.8"/>
  <!-- 左瓣 -->
  <path d="M10.8 15 C9 14 8.5 13.5 8.5 15 C8.5 16.5 9.5 16 10.8 15"/>
  <!-- 右瓣 -->
  <path d="M13.2 15 C15 14 15.5 13.5 15.5 15 C15.5 16.5 14.5 16 13.2 15"/>
  <!-- 下瓣 -->
  <path d="M12 16.2 C11 18 11 19 12 19 C13 19 13 18 12 16.2"/>
</svg>
